<svg xmlns="http://www.w3.org/2000/svg" width="287" height="287" viewBox="0 0 287 287"><defs><style>.a,.c{fill:#febf2c;}.a{opacity:0.1;}.b{fill:#fff;}.d{fill:#3a3a3a;font-size:18px;font-family:Roboto-Medium, Roboto;font-weight:500;}</style></defs><g transform="translate(-577 -381)"><circle class="a" cx="143.5" cy="143.5" r="143.5" transform="translate(577 381)"/><path class="b" d="M22950.781,14760.022l-58.736,1.081-24.652,20.85,48.734,22.521,55.045-16.483,1.662-8Z" transform="translate(-22201 -14264)"/><g transform="translate(-17853 -17912)"><g transform="translate(0 -17)"><path class="c" d="M82.823,4V.012l23.992,20.012-5.558.127ZM-2.17,20.023,21.822.012V0h61V4h-61L3.388,20.15Z" transform="translate(18521.178 18424)"/><path class="c" d="M103,63H6a6.007,6.007,0,0,1-6-6V23H36v5a9.01,9.01,0,0,0,9,9H64a9.01,9.01,0,0,0,9-9V23h36V57A6.007,6.007,0,0,1,103,63Z" transform="translate(18519 18421)"/></g><path class="c" d="M42,17.034,52.607,6.428l3.535,3.535L45.535,20.57ZM0,9.963,3.535,6.428,14.142,17.034l-3.535,3.535ZM24.573,19V4h5V19Z" transform="translate(18546.428 18366)"/></g><text class="d" transform="translate(726 595)"><tspan x="-67.715" y="0">No record found!</tspan></text></g></svg>