<svg xmlns="http://www.w3.org/2000/svg" version="1.1" xmlnsXlink="http://www.w3.org/1999/xlink" xmlnsSvgjs="http://svgjs.com/svgjs" width="1440" height="560" preserveAspectRatio="none" viewBox="0 0 1440 560">
    <g mask="url(&quot;#SvgjsMask1076&quot;)" fill="none">
        <rect width="1440" height="560" x="0" y="0" fill="rgba(236, 240, 243, 1)"></rect>
        <path d="M0,482.592C90.771,463.448,177.214,445.1,262.314,408.168C362.944,364.496,476.006,335.2,541.83,247.445C613.734,151.583,670.126,23.603,637.194,-91.615C604.417,-206.289,476.509,-260.556,377.587,-327.181C300.803,-378.896,217.387,-411.977,127.665,-434.788C40.974,-456.828,-44.885,-460.396,-134.281,-457.318C-251.985,-453.266,-401.887,-504.057,-477.72,-413.946C-553.883,-323.443,-460.734,-184.846,-463.102,-66.584C-465.09,32.698,-509.654,126.565,-490.493,224.001C-467.872,339.034,-448.278,481.489,-344.572,536.164C-239.624,591.493,-116.086,507.075,0,482.592" fill="#c9d4dd"></path>
        <path d="M1440 1142.92C1547.143 1135.966 1617.46 1033.336 1714.012 986.3720000000001 1828.142 930.858 1999.6599999999999 954.937 2058.091 842.273 2115.84 730.925 1988.806 607.747 1975.04 483.073 1960.5810000000001 352.122 2053.19 202.365 1975.673 95.83600000000001 1898.951-9.600999999999999 1737.72 7.197999999999979 1609.922-18.700000000000045 1493.204-42.351999999999975 1377.41-74.96299999999997 1261.196-48.950000000000045 1140.2649999999999-21.881999999999948 1007.097 23.59299999999996 944.131 130.327 882.181 235.33999999999997 954.124 367.185 944.028 488.69 934.7719999999999 600.087 848.633 707.515 887.461 812.336 926.558 917.881 1045.545 965.703 1142.132 1023.491 1235.827 1079.548 1331.045 1149.992 1440 1142.92" fill="#ffffff"></path>
    </g>
    <defs>
        <mask id="SvgjsMask1076">
            <rect width="1440" height="560" fill="#ffffff"></rect>
        </mask>
    </defs>
</svg>